HIERARCHY
ROOT hip
{
	OFFSET 0.000000 0.000000 0.000000
	CHANNELS 6 Xposition Yposition Zposition Xrotation Yrotation Zrotation
	JOINT abdomen
	{
		OFFSET 0.0000 3.3100 -0.0000
		CHANNELS 3 Xrotation Yrotation Zrotation
		JOINT chest
		{
			OFFSET 0.0000 8.0660 -0.6050
			CHANNELS 3 Xrotation Yrotation Zrotation
			JOINT neck
			{
				OFFSET 0.0000 9.8861 -0.3705
				CHANNELS 3 Xrotation Yrotation Zrotation
				JOINT head
				{
					OFFSET 0.0000 2.9776 -0.0000
					CHANNELS 3 Xrotation Yrotation Zrotation
					JOINT mEyeRight
					{
						OFFSET -1.4203 2.8770 3.5859
						CHANNELS 3 Xrotation Yrotation Zrotation
						End Site
						{
							OFFSET 0.0000 0.0000 0.9843
						}
					}
					JOINT mEyeLeft
					{
						OFFSET 1.4203 2.8770 3.5857
						CHANNELS 3 Xrotation Yrotation Zrotation
						End Site
						{
							OFFSET 0.0000 0.0000 0.9843
						}
					}
					JOINT mFaceRoot
					{
						OFFSET 0.0000 1.6934 0.9104
						CHANNELS 3 Xrotation Yrotation Zrotation
						JOINT mFaceForeheadLeft
						{
							OFFSET 1.3035 3.0608 2.3307
							CHANNELS 3 Xrotation Yrotation Zrotation
							End Site
							{
								OFFSET 0.1575 0.7087 0.9449
							}
						}
						JOINT mFaceForeheadRight
						{
							OFFSET -1.3035 3.0608 2.3307
							CHANNELS 3 Xrotation Yrotation Zrotation
							End Site
							{
								OFFSET -0.1575 0.7087 0.9449
							}
						}
						JOINT mFaceEyebrowOuterLeft
						{
							OFFSET 1.9168 1.7290 2.3307
							CHANNELS 3 Xrotation Yrotation Zrotation
							End Site
							{
								OFFSET 0.5118 0.0000 0.9055
							}
						}
						JOINT mFaceEyebrowCenterLeft
						{
							OFFSET 1.6711 2.1467 2.5492
							CHANNELS 3 Xrotation Yrotation Zrotation
							End Site
							{
								OFFSET 0.0000 0.0000 1.0630
							}
						}
						JOINT mFaceEyebrowInnerLeft
						{
							OFFSET 0.9060 1.8578 2.7313
							CHANNELS 3 Xrotation Yrotation Zrotation
							End Site
							{
								OFFSET 0.0000 0.0000 1.0236
							}
						}
						JOINT mFaceEyebrowOuterRight
						{
							OFFSET -1.9168 1.7290 2.3307
							CHANNELS 3 Xrotation Yrotation Zrotation
							End Site
							{
								OFFSET -0.5118 0.0000 0.9055
							}
						}
						JOINT mFaceEyebrowCenterRight
						{
							OFFSET -1.6711 2.1467 2.5492
							CHANNELS 3 Xrotation Yrotation Zrotation
							End Site
							{
								OFFSET 0.0000 0.0000 1.0630
							}
						}
						JOINT mFaceEyebrowInnerRight
						{
							OFFSET -0.9060 1.8578 2.7313
							CHANNELS 3 Xrotation Yrotation Zrotation
							End Site
							{
								OFFSET 0.0000 0.0000 1.0236
							}
						}
						JOINT mFaceEyeLidUpperLeft
						{
							OFFSET 1.4156 1.1887 2.6585
							CHANNELS 3 Xrotation Yrotation Zrotation
							End Site
							{
								OFFSET 0.0000 0.1969 1.0630
							}
						}
						JOINT mFaceEyeLidLowerLeft
						{
							OFFSET 1.4156 1.1834 2.6585
							CHANNELS 3 Xrotation Yrotation Zrotation
							End Site
							{
								OFFSET 0.0000 -0.2756 0.9449
							}
						}
						JOINT mFaceEyeLidUpperRight
						{
							OFFSET -1.4156 1.1887 2.6585
							CHANNELS 3 Xrotation Yrotation Zrotation
							End Site
							{
								OFFSET 0.0000 0.1969 1.0630
							}
						}
						JOINT mFaceEyeLidLowerRight
						{
							OFFSET -1.4156 1.1834 2.6585
							CHANNELS 3 Xrotation Yrotation Zrotation
							End Site
							{
								OFFSET 0.0000 -0.2756 0.9449
							}
						}
						JOINT mFaceEar1Left
						{
							OFFSET 2.9795 0.0712 -0.0000
							CHANNELS 3 Xrotation Yrotation Zrotation
							JOINT mFaceEar2Left
							{
								OFFSET 0.7087 0.9842 -0.7480
								CHANNELS 3 Xrotation Yrotation Zrotation
								End Site
								{
									OFFSET 0.0000 1.2992 -0.0000
								}
							}
						}
						JOINT mFaceEar1Right
						{
							OFFSET -2.9795 0.0712 -0.0000
							CHANNELS 3 Xrotation Yrotation Zrotation
							JOINT mFaceEar2Right
							{
								OFFSET -0.7087 0.9842 -0.7480
								CHANNELS 3 Xrotation Yrotation Zrotation
								End Site
								{
									OFFSET 0.0000 1.2992 -0.0000
								}
							}
						}
						JOINT mFaceNoseLeft
						{
							OFFSET 0.5587 -0.1957 3.1319
							CHANNELS 3 Xrotation Yrotation Zrotation
							End Site
							{
								OFFSET 0.1575 0.0000 0.5906
							}
						}
						JOINT mFaceNoseCenter
						{
							OFFSET 0.0000 -0.0534 3.7146
							CHANNELS 3 Xrotation Yrotation Zrotation
							End Site
							{
								OFFSET 0.0000 0.0000 0.9843
							}
						}
						JOINT mFaceNoseRight
						{
							OFFSET -0.5587 -0.1957 3.1319
							CHANNELS 3 Xrotation Yrotation Zrotation
							End Site
							{
								OFFSET -0.1575 0.0000 0.5906
							}
						}
						JOINT mFaceCheekLowerLeft
						{
							OFFSET 1.2663 -1.1941 1.8209
							CHANNELS 3 Xrotation Yrotation Zrotation
							End Site
							{
								OFFSET 1.1811 0.0000 0.5118
							}
						}
						JOINT mFaceCheekUpperLeft
						{
							OFFSET 1.2663 -0.2313 2.5492
							CHANNELS 3 Xrotation Yrotation Zrotation
							End Site
							{
								OFFSET 0.5906 0.0000 0.8661
							}
						}
						JOINT mFaceCheekLowerRight
						{
							OFFSET -1.2663 -1.1941 1.8209
							CHANNELS 3 Xrotation Yrotation Zrotation
							End Site
							{
								OFFSET -1.1811 0.0000 0.5118
							}
						}
						JOINT mFaceCheekUpperRight
						{
							OFFSET -1.2663 -0.2313 2.5492
							CHANNELS 3 Xrotation Yrotation Zrotation
							End Site
							{
								OFFSET -0.5906 0.0000 0.8661
							}
						}
						JOINT mFaceJaw
						{
							OFFSET 0.0000 -0.5339 -0.0364
							CHANNELS 3 Xrotation Yrotation Zrotation
							JOINT mFaceChin
							{
								OFFSET 0.0000 -2.0212 2.5310
								CHANNELS 3 Xrotation Yrotation Zrotation
								End Site
								{
									OFFSET 0.0000 -0.7087 0.8268
								}
							}
							JOINT mFaceTeethLower
							{
								OFFSET 0.0000 -1.4869 0.7648
								CHANNELS 3 Xrotation Yrotation Zrotation
								JOINT mFaceLipLowerLeft
								{
									OFFSET 0.0000 0.0000 1.6388
									CHANNELS 3 Xrotation Yrotation Zrotation
									End Site
									{
										OFFSET 0.6693 0.1969 1.3386
									}
								}
								JOINT mFaceLipLowerRight
								{
									OFFSET 0.0000 0.0000 1.6388
									CHANNELS 3 Xrotation Yrotation Zrotation
									End Site
									{
										OFFSET -0.6693 0.1969 1.3386
									}
								}
								JOINT mFaceLipLowerCenter
								{
									OFFSET 0.0000 0.0000 1.6388
									CHANNELS 3 Xrotation Yrotation Zrotation
									End Site
									{
										OFFSET 0.0000 0.0787 1.5748
									}
								}
								JOINT mFaceTongueBase
								{
									OFFSET 0.0000 0.1821 1.4203
									CHANNELS 3 Xrotation Yrotation Zrotation
									JOINT mFaceTongueTip
									{
										OFFSET 0.0000 0.2549 0.8012
										CHANNELS 3 Xrotation Yrotation Zrotation
										End Site
										{
											OFFSET 0.0000 0.0000 0.3937
										}
									}
								}
							}
						}
						JOINT mFaceJawShaper
						{
							OFFSET 0.0000 0.0000 0.0000
							CHANNELS 3 Xrotation Yrotation Zrotation
							End Site
							{
								OFFSET 0.0000 -0.0000 -0.6693
							}
						}
						JOINT mFaceForeheadCenter
						{
							OFFSET 0.0000 2.3027 2.5237
							CHANNELS 3 Xrotation Yrotation Zrotation
							End Site
							{
								OFFSET 0.0000 0.0000 1.4173
							}
						}
						JOINT mFaceNoseBase
						{
							OFFSET 0.0000 -0.7047 3.4232
							CHANNELS 3 Xrotation Yrotation Zrotation
							End Site
							{
								OFFSET 0.0000 0.0000 0.5512
							}
						}
						JOINT mFaceTeethUpper
						{
							OFFSET 0.0000 -1.1478 0.7283
							CHANNELS 3 Xrotation Yrotation Zrotation
							JOINT mFaceLipUpperLeft
							{
								OFFSET 0.0000 -0.1478 1.6388
								CHANNELS 3 Xrotation Yrotation Zrotation
								End Site
								{
									OFFSET 0.5906 0.0000 1.6142
								}
							}
							JOINT mFaceLipUpperRight
							{
								OFFSET 0.0000 -0.1478 1.6388
								CHANNELS 3 Xrotation Yrotation Zrotation
								End Site
								{
									OFFSET -0.5906 0.0000 1.6142
								}
							}
							JOINT mFaceLipCornerLeft
							{
								OFFSET -0.6919 -0.3642 1.0197
								CHANNELS 3 Xrotation Yrotation Zrotation
								End Site
								{
									OFFSET 2.0079 0.0000 1.7717
								}
							}
							JOINT mFaceLipCornerRight
							{
								OFFSET 0.6919 -0.3642 1.0197
								CHANNELS 3 Xrotation Yrotation Zrotation
								End Site
								{
									OFFSET -2.0079 0.0000 1.7717
								}
							}
							JOINT mFaceLipUpperCenter
							{
								OFFSET 0.0000 -0.0964 1.6388
								CHANNELS 3 Xrotation Yrotation Zrotation
								End Site
								{
									OFFSET 0.0000 0.0787 1.6929
								}
							}
						}
						JOINT mFaceEyecornerInnerLeft
						{
							OFFSET 0.7135 1.1122 2.7313
							CHANNELS 3 Xrotation Yrotation Zrotation
							End Site
							{
								OFFSET 0.0000 0.0000 0.6299
							}
						}
						JOINT mFaceEyecornerInnerRight
						{
							OFFSET -0.7135 1.1122 2.7313
							CHANNELS 3 Xrotation Yrotation Zrotation
							End Site
							{
								OFFSET 0.0000 0.0000 0.6299
							}
						}
						JOINT mFaceNoseBridge
						{
							OFFSET 0.0000 0.7118 3.3140
							CHANNELS 3 Xrotation Yrotation Zrotation
							End Site
							{
								OFFSET 0.0000 0.3150 0.5906
							}
						}
					}
				}
			}
			JOINT lCollar
			{
				OFFSET 2.8220 6.5116 -0.8157
				CHANNELS 3 Xrotation Yrotation Zrotation
				JOINT lShldr
				{
					OFFSET 3.1102 0.0000 0.0000
					CHANNELS 3 Xrotation Yrotation Zrotation
					JOINT lForeArm
					{
						OFFSET 10.9354 0.0000 0.0000
						CHANNELS 3 Xrotation Yrotation Zrotation
						JOINT lHand
						{
							OFFSET 9.5165 0.0000 0.0000
							CHANNELS 3 Xrotation Yrotation Zrotation
							End Site
							{
								OFFSET 2.3622 0.0000 0.0000
							}
						}
					}
				}
			}
			JOINT rCollar
			{
				OFFSET -2.8346 6.5116 -0.8157
				CHANNELS 3 Xrotation Yrotation Zrotation
				JOINT rShldr
				{
					OFFSET -3.1267 0.0000 0.0000
					CHANNELS 3 Xrotation Yrotation Zrotation
					JOINT rForeArm
					{
						OFFSET -10.9354 0.0000 0.0000
						CHANNELS 3 Xrotation Yrotation Zrotation
						JOINT rHand
						{
							OFFSET -9.5236 0.0000 0.0000
							CHANNELS 3 Xrotation Yrotation Zrotation
							End Site
							{
								OFFSET -2.3622 0.0000 0.0000
							}
						}
					}
				}
			}
		}
	}
	JOINT rThigh
	{
		OFFSET -5.0711 -1.6176 1.3236
		CHANNELS 3 Xrotation Yrotation Zrotation
		JOINT rShin
		{
			OFFSET 1.9148 -19.3276 -0.0307
			CHANNELS 3 Xrotation Yrotation Zrotation
			JOINT rFoot
			{
				OFFSET 0.0000 -18.4446 -1.1366
				CHANNELS 3 Xrotation Yrotation Zrotation
				End Site
				{
					OFFSET 0.0000 -2.3873 4.4077
				}
			}
		}
	}
	JOINT lThigh
	{
		OFFSET 4.9907 -1.6141 1.3290
		CHANNELS 3 Xrotation Yrotation Zrotation
		JOINT lShin
		{
			OFFSET -1.7940 -19.3328 -0.0349
			CHANNELS 3 Xrotation Yrotation Zrotation
			JOINT lFoot
			{
				OFFSET 0.0543 -18.4428 -1.1373
				CHANNELS 3 Xrotation Yrotation Zrotation
				End Site
				{
					OFFSET 0.0000 -2.3866 4.4077
				}
			}
		}
	}
}
MOTION
Frames: 4
Frame Time: 0.041667
0.0000 10.7401 -5.4000 35.2624 0.0000 0.0000 21.8325 0.0000 0.0000 15.9885 0.0000 0.0000 17.0174 0.0000 0.0000 0.0000 0.0000 0.0000 -0.0003 1.4321 0.0000 -0.0003 -1.4321 0.0000 0.0000 0.0000 0.0000 0.0000 0.0000 0.0000 0.0000 0.0000 0.0000 0.0000 0.0000 0.0000 0.0000 0.0000 0.0000 0.0000 0.0000 0.0000 0.0000 0.0000 0.0000 0.0000 0.0000 0.0000 0.0000 0.0000 0.0000 0.0000 0.0000 0.0000 0.0000 0.0000 0.0000 0.0000 0.0000 0.0000 0.0000 0.0000 0.0000 0.0000 0.0000 0.0000 0.0000 0.0000 0.0000 0.0000 0.0000 0.0000 0.0000 0.0000 0.0000 0.0000 0.0000 0.0000 0.0000 0.0000 0.0000 0.0000 0.0000 0.0000 0.0000 0.0000 0.0000 0.0000 0.0000 0.0000 0.0000 0.0000 0.0000 0.0000 0.0000 0.0000 0.0000 0.0000 0.0000 0.0000 0.0000 0.0000 0.0000 0.0000 0.0000 0.0000 0.0000 0.0000 0.0000 0.0000 0.0000 0.0000 0.0000 0.0000 0.0000 0.0000 0.0000 0.0000 0.0000 0.0000 0.0000 0.0000 0.0000 0.0000 0.0000 0.0000 0.0000 0.0000 0.0000 0.0000 0.0000 0.0000 0.0000 0.0000 0.0000 0.0000 0.0000 0.0000 0.0000 0.0000 0.0000 0.0000 0.0000 0.0000 0.0000 0.0000 0.0000 0.0000 0.0000 0.0000 0.0000 0.0000 0.0000 0.0000 0.0000 0.0000 0.0000 0.0000 0.0000 -66.6756 -70.8532 -63.5493 0.0000 -55.0670 0.0000 25.2123 26.8226 40.6914 0.0000 0.0000 0.0000 -71.2422 72.0097 71.2402 0.0000 47.6322 0.0000 25.3632 -22.7816 -45.8344 -99.1349 3.5627 -2.0466 152.5245 0.0000 0.0000 33.0460 3.3501 -2.3788 -99.6233 -4.8827 -0.1945 152.5542 0.3904 -0.2210 33.4121 -5.0809 0.7120 
0.0000 10.7666 -5.3330 37.3149 0.0000 0.0000 23.1692 0.0000 0.0000 16.7461 0.0000 0.0000 18.0109 0.0000 0.0000 0.0000 0.0000 0.0000 -0.0003 1.4321 0.0000 -0.0003 -1.4321 0.0000 0.0000 0.0000 0.0000 0.0000 0.0000 0.0000 0.0000 0.0000 0.0000 0.0000 0.0000 0.0000 0.0000 0.0000 0.0000 0.0000 0.0000 0.0000 0.0000 0.0000 0.0000 0.0000 0.0000 0.0000 0.0000 0.0000 0.0000 0.0000 0.0000 0.0000 0.0000 0.0000 0.0000 0.0000 0.0000 0.0000 0.0000 0.0000 0.0000 0.0000 0.0000 0.0000 0.0000 0.0000 0.0000 0.0000 0.0000 0.0000 0.0000 0.0000 0.0000 0.0000 0.0000 0.0000 0.0000 0.0000 0.0000 0.0000 0.0000 0.0000 0.0000 0.0000 0.0000 0.0000 0.0000 0.0000 0.0000 0.0000 0.0000 0.0000 0.0000 0.0000 0.0000 0.0000 0.0000 0.0000 0.0000 0.0000 0.0000 0.0000 0.0000 0.0000 0.0000 0.0000 0.0000 0.0000 0.0000 0.0000 0.0000 0.0000 0.0000 0.0000 0.0000 0.0000 0.0000 0.0000 0.0000 0.0000 0.0000 0.0000 0.0000 0.0000 0.0000 0.0000 0.0000 0.0000 0.0000 0.0000 0.0000 0.0000 0.0000 0.0000 0.0000 0.0000 0.0000 0.0000 0.0000 0.0000 0.0000 0.0000 0.0000 0.0000 0.0000 0.0000 0.0000 0.0000 0.0000 0.0000 0.0000 0.0000 0.0000 0.0000 0.0000 0.0000 0.0000 -68.0098 -73.3401 -58.0253 0.0000 -57.6010 0.0000 25.4672 28.8437 38.9475 0.0000 0.0000 0.0000 -72.3256 74.6292 65.9383 0.0000 50.5650 0.0000 25.7636 -25.1499 -44.2646 -100.9410 3.5586 -2.0137 152.4380 0.0000 0.0000 32.8838 3.3593 -2.3312 -101.4230 -4.8702 -0.2074 152.4681 0.3905 -0.2207 33.2431 -5.0726 0.6755 
0.0000 10.7938 -5.2669 39.2220 0.0000 0.0000 24.4390 0.0000 0.0000 17.4515 0.0000 0.0000 18.9423 0.0000 0.0000 0.0000 0.0000 0.0000 -0.0003 1.4321 0.0000 -0.0003 -1.4321 0.0000 0.0000 0.0000 0.0000 0.0000 0.0000 0.0000 0.0000 0.0000 0.0000 0.0000 0.0000 0.0000 0.0000 0.0000 0.0000 0.0000 0.0000 0.0000 0.0000 0.0000 0.0000 0.0000 0.0000 0.0000 0.0000 0.0000 0.0000 0.0000 0.0000 0.0000 0.0000 0.0000 0.0000 0.0000 0.0000 0.0000 0.0000 0.0000 0.0000 0.0000 0.0000 0.0000 0.0000 0.0000 0.0000 0.0000 0.0000 0.0000 0.0000 0.0000 0.0000 0.0000 0.0000 0.0000 0.0000 0.0000 0.0000 0.0000 0.0000 0.0000 0.0000 0.0000 0.0000 0.0000 0.0000 0.0000 0.0000 0.0000 0.0000 0.0000 0.0000 0.0000 0.0000 0.0000 0.0000 0.0000 0.0000 0.0000 0.0000 0.0000 0.0000 0.0000 0.0000 0.0000 0.0000 0.0000 0.0000 0.0000 0.0000 0.0000 0.0000 0.0000 0.0000 0.0000 0.0000 0.0000 0.0000 0.0000 0.0000 0.0000 0.0000 0.0000 0.0000 0.0000 0.0000 0.0000 0.0000 0.0000 0.0000 0.0000 0.0000 0.0000 0.0000 0.0000 0.0000 0.0000 0.0000 0.0000 0.0000 0.0000 0.0000 0.0000 0.0000 0.0000 0.0000 0.0000 0.0000 0.0000 0.0000 0.0000 0.0000 0.0000 0.0000 0.0000 0.0000 -68.7703 -75.6007 -51.9948 0.0000 -59.5544 0.0000 25.5093 30.3811 37.1788 0.0000 0.0000 0.0000 -72.6855 76.9968 59.9629 0.0000 52.9410 0.0000 26.0095 -27.0570 -42.6069 -102.5941 3.5546 -1.9750 152.3396 0.0000 0.0000 32.7256 3.3691 -2.2773 -103.0693 -4.8572 -0.2254 152.3702 0.3906 -0.2203 33.0777 -5.0640 0.6332 
0.0000 10.8207 -5.2031 40.9646 0.0000 0.0000 25.6295 0.0000 0.0000 18.0980 0.0000 0.0000 19.8015 0.0000 0.0000 0.0000 0.0000 0.0000 -0.0003 1.4321 0.0000 -0.0003 -1.4321 0.0000 0.0000 0.0000 0.0000 0.0000 0.0000 0.0000 0.0000 0.0000 0.0000 0.0000 0.0000 0.0000 0.0000 0.0000 0.0000 0.0000 0.0000 0.0000 0.0000 0.0000 0.0000 0.0000 0.0000 0.0000 0.0000 0.0000 0.0000 0.0000 0.0000 0.0000 0.0000 0.0000 0.0000 0.0000 0.0000 0.0000 0.0000 0.0000 0.0000 0.0000 0.0000 0.0000 0.0000 0.0000 0.0000 0.0000 0.0000 0.0000 0.0000 0.0000 0.0000 0.0000 0.0000 0.0000 0.0000 0.0000 0.0000 0.0000 0.0000 0.0000 0.0000 0.0000 0.0000 0.0000 0.0000 0.0000 0.0000 0.0000 0.0000 0.0000 0.0000 0.0000 0.0000 0.0000 0.0000 0.0000 0.0000 0.0000 0.0000 0.0000 0.0000 0.0000 0.0000 0.0000 0.0000 0.0000 0.0000 0.0000 0.0000 0.0000 0.0000 0.0000 0.0000 0.0000 0.0000 0.0000 0.0000 0.0000 0.0000 0.0000 0.0000 0.0000 0.0000 0.0000 0.0000 0.0000 0.0000 0.0000 0.0000 0.0000 0.0000 0.0000 0.0000 0.0000 0.0000 0.0000 0.0000 0.0000 0.0000 0.0000 0.0000 0.0000 0.0000 0.0000 0.0000 0.0000 0.0000 0.0000 0.0000 0.0000 0.0000 0.0000 0.0000 0.0000 0.0000 -68.7397 -77.6152 -45.3970 0.0000 -60.9526 0.0000 25.3330 31.4369 35.4918 0.0000 0.0000 0.0000 -72.0470 79.0953 53.1813 0.0000 54.7643 0.0000 26.0807 -28.4888 -40.9705 -104.0811 3.5506 -1.9333 152.2346 0.0000 0.0000 32.5721 3.3787 -2.2203 -104.5496 -4.8441 -0.2463 152.2656 0.3907 -0.2199 32.9170 -5.0553 0.5880 
